<svg width="60" height="75" viewBox="0 0 60 75" fill="none" xmlns="http://www.w3.org/2000/svg">
<path d="M59.8963 67.9553V20.8419L40.767 1.63317V1.54379H40.6755L39.1391 0H7.02171C4.59289 0 0 1.47251 0 7.04458V67.9566C0 70.3926 1.46804 75 7.02171 75H52.8752C55.3035 74.9994 59.8963 73.5268 59.8963 67.9553Z" fill="white"/>
<path d="M48.1286 48.9304C47.2147 49.2002 45.873 49.2306 44.4345 49.0219C42.8906 48.798 41.3158 48.3261 39.768 47.6306C42.5282 47.229 44.6694 47.3528 46.5009 48.0017C46.9348 48.1554 47.6475 48.5664 48.1286 48.9304ZM32.7285 46.3986C32.6162 46.4291 32.5056 46.458 32.3955 46.4886C31.6528 46.6907 30.9302 46.8879 30.2338 47.0634L29.2948 47.3016C27.4059 47.7795 25.4747 48.2677 23.5672 48.8492C24.2921 47.1011 24.9656 45.3337 25.6251 43.6057C26.1133 42.3266 26.6119 41.0199 27.1275 39.7301C27.3891 40.1621 27.6621 40.5943 27.9461 41.0276C29.2402 42.9986 30.867 44.8209 32.7285 46.3986ZM27.9238 26.6861C28.0463 28.8431 27.5809 30.9182 26.8982 32.9089C26.0573 30.4474 25.6654 27.7292 26.7167 25.5347C26.9863 24.9722 27.2072 24.6714 27.3504 24.5145C27.5717 24.8561 27.8627 25.6204 27.9238 26.6861ZM18.0628 54.0101C17.5903 54.8554 17.108 55.6466 16.6137 56.3938C15.4208 58.1916 13.4699 60.1164 12.4676 60.1164C12.369 60.1164 12.2497 60.1005 12.0753 59.9164C11.963 59.7986 11.945 59.7142 11.9505 59.5991C11.9843 58.9382 12.86 57.7611 14.1286 56.6696C15.2801 55.6794 16.5816 54.7991 18.0628 54.0101ZM51.3199 49.0239C51.1667 46.8223 47.4606 45.4099 47.424 45.3967C45.9913 44.8888 44.4349 44.6421 42.666 44.6421C40.7724 44.6421 38.7309 44.916 36.1091 45.5286C33.7762 43.8748 31.761 41.8044 30.2554 39.5124C29.5905 38.4997 28.9928 37.4889 28.4717 36.5016C29.7437 33.4601 30.8891 30.1899 30.681 26.5273C30.5132 23.5905 29.1889 21.6178 27.3879 21.6178C26.1525 21.6178 25.0888 22.5328 24.2239 24.3399C22.6809 27.5601 23.0865 31.6804 25.4288 36.597C24.5852 38.5783 23.8014 40.6324 23.0428 42.6208C22.0989 45.0934 21.1264 47.6443 20.0303 50.0709C16.9563 51.2873 14.4309 52.7623 12.3263 54.5732C10.9476 55.7574 9.28543 57.5677 9.19056 59.4576C9.14424 60.3476 9.44942 61.1638 10.0696 61.8178C10.7284 62.5121 11.5562 62.8778 12.4663 62.8789C15.4723 62.8789 18.3654 58.7488 18.9142 57.9204C20.0188 56.2554 21.0527 54.3983 22.0658 52.2561C24.6173 51.3339 27.3364 50.6456 29.9719 49.9804L30.9157 49.7406C31.6252 49.5602 32.3627 49.3607 33.1191 49.1537C33.9195 48.9373 34.743 48.7129 35.58 48.4997C38.2862 50.2208 41.1964 51.3433 44.0346 51.7552C46.4252 52.1031 48.5482 51.9013 49.9854 51.1521C51.2786 50.4786 51.3499 49.4392 51.3199 49.0239ZM57.1416 67.9553C57.1416 71.9873 53.5879 72.2359 52.8709 72.2439H7.02161C3.0042 72.2439 2.76229 68.6659 2.75462 67.9553L2.75408 7.04329C2.75408 3.00731 6.31431 2.76262 7.02107 2.75452H37.9931L38.0096 2.77087V14.8574C38.0096 17.2831 39.4761 21.8754 45.0296 21.8754H57.0381L57.1412 21.9784L57.1416 67.9553ZM54.2947 19.1205H45.0317C41.0154 19.1205 40.7724 15.5619 40.767 14.8578V5.53701L54.2947 19.1205ZM59.8963 67.9553V20.8419L40.767 1.63317V1.54379H40.6755L39.1391 0H7.02171C4.59289 0 0 1.47251 0 7.04458V67.9566C0 70.3926 1.46804 75 7.02171 75H52.8752C55.3035 74.9994 59.8963 73.5268 59.8963 67.9553Z" fill="#EB5757"/>
</svg>
