<svg width="75" height="75" viewBox="0 0 75 75" fill="none" xmlns="http://www.w3.org/2000/svg">
<g clip-path="url(#clip0_880_5972)">
<path d="M73.4375 10.9375H37.5V64.0625H73.4375V10.9375Z" fill="white"/>
<path d="M73.4375 65.625H42.1875C41.3239 65.625 40.625 64.9261 40.625 64.0625C40.625 63.1989 41.3239 62.5 42.1875 62.5H71.875V12.5H42.1875C41.3239 12.5 40.625 11.8011 40.625 10.9375C40.625 10.0739 41.3239 9.375 42.1875 9.375H73.4375C74.3011 9.375 75 10.0739 75 10.9375V64.0625C75 64.9261 74.3011 65.625 73.4375 65.625Z" fill="#015CAB"/>
<path d="M43.75 0L0 8.15217V66.8478L43.75 75V0Z" fill="#015CAB"/>
<path opacity="0.2" d="M0 8.1522V8.93345L43.75 0.78125V0L0 8.1522Z" fill="white"/>
<path opacity="0.1" d="M0 66.8478L43.75 75V74.2188L0 66.0666V66.8478Z" fill="black"/>
<path d="M67.1875 17.1875H42.1875V20.3125H67.1875V17.1875Z" fill="#015CAB"/>
<path d="M67.1875 26.5625H42.1875V29.6875H67.1875V26.5625Z" fill="#015CAB"/>
<path d="M67.1875 35.9375H42.1875V39.0625H67.1875V35.9375Z" fill="#015CAB"/>
<path d="M67.1875 45.3125H42.1875V48.4375H67.1875V45.3125Z" fill="#015CAB"/>
<path d="M67.1875 54.6875H42.1875V57.8125H67.1875V54.6875Z" fill="#015CAB"/>
<path d="M73.4375 65.625C74.3011 65.625 75 64.9261 75 64.0625V40.625L43.75 9.375V65.625H73.4375Z" fill="url(#paint0_linear_880_5972)"/>
<path d="M24.8043 51.6602L28.1258 51.8974L35.0424 25.7336L30.0966 26.0868L26.4828 39.6347C26.4828 39.6347 24.6449 32.9483 22.8998 26.6008L17.6208 26.9779L14.1415 39.6347L10.8934 27.4584L6.12793 27.7988L12.1977 50.7597L15.9996 51.0313L20.3121 35.9375C20.3121 35.9375 22.7886 44.6056 24.8043 51.6602Z" fill="white"/>
<path opacity="0.05" d="M43.75 0L0 8.15217V66.8478L43.75 75V0Z" fill="url(#paint1_linear_880_5972)"/>
<path d="M73.4375 9.375H43.75V0L0 8.1522V66.8478L43.75 75V65.625H73.4375C74.3011 65.625 75 64.9261 75 64.0625V10.9375C75 10.0739 74.3011 9.375 73.4375 9.375Z" fill="url(#paint2_linear_880_5972)"/>
</g>
<defs>
<linearGradient id="paint0_linear_880_5972" x1="29.6875" y1="23.4375" x2="72.9801" y2="66.7301" gradientUnits="userSpaceOnUse">
<stop stop-opacity="0.1"/>
<stop offset="1" stop-opacity="0"/>
</linearGradient>
<linearGradient id="paint1_linear_880_5972" x1="-0.00254851" y1="37.4983" x2="43.7502" y2="37.4983" gradientUnits="userSpaceOnUse">
<stop stop-color="white"/>
<stop offset="1"/>
</linearGradient>
<linearGradient id="paint2_linear_880_5972" x1="-4.88578" y1="18.6298" x2="78.2669" y2="57.4045" gradientUnits="userSpaceOnUse">
<stop stop-color="white" stop-opacity="0.2"/>
<stop offset="1" stop-color="white" stop-opacity="0"/>
</linearGradient>
<clipPath id="clip0_880_5972">
<rect width="75" height="75" fill="white"/>
</clipPath>
</defs>
</svg>
